<svg width="60" height="59" viewBox="0 0 60 59" fill="none" xmlns="http://www.w3.org/2000/svg">
<path d="M30.1444 58.8889C38.0338 58.8889 45.4302 55.8599 50.995 50.2951C56.5599 44.7302 59.5889 37.3339 59.5889 29.4445C59.5889 21.555 56.5599 14.1587 50.995 8.59383C45.4302 3.02897 38.0338 0 30.1444 0C22.255 0 14.8586 3.02897 9.29378 8.59383C3.72892 14.1587 0.699951 21.555 0.699951 29.4445C0.699951 37.3339 3.72892 44.7302 9.29378 50.2951C14.8586 55.8599 22.255 58.8889 30.1444 58.8889ZM31.835 53.8876C31.2715 53.958 30.7079 53.958 30.1444 53.958C29.3696 53.958 28.5947 53.8876 27.8198 53.8171C25.284 49.8724 23.382 45.646 22.255 41.2082H34.7231C35.1457 42.2648 35.9206 43.2509 36.8363 43.8849C35.6388 47.407 33.9482 50.7177 31.835 53.8876V53.8876ZM38.5269 52.4788C39.8653 50.0133 40.9219 47.5479 41.7672 44.9415C43.81 44.5189 45.4302 43.1101 46.205 41.2082H51.629C48.8113 46.3504 44.0918 50.3655 38.5269 52.4788ZM54.5875 29.4445C54.5875 31.769 54.2353 34.0231 53.6718 36.2068H46.0641C45.6415 35.2911 44.9371 34.4458 44.0918 33.8118C44.2327 32.2621 44.3031 30.7124 44.3031 29.1627C44.3031 26.979 44.1622 24.7953 43.8805 22.6821H53.6014C54.3058 24.7953 54.5875 27.1199 54.5875 29.4445V29.4445ZM51.629 17.6808H43.0352C42.1194 13.8065 40.781 10.1436 38.9496 6.62149C44.3031 8.66428 48.8113 12.6794 51.629 17.6808ZM39.3722 29.1627C39.3722 30.3602 39.3018 31.5577 39.2313 32.7552C37.259 33.1779 35.6388 34.4458 34.864 36.2068H21.2688C20.987 34.0936 20.7757 31.9099 20.7757 29.7967C20.7757 28.4583 20.8462 27.1199 20.987 25.7815C22.8185 25.4293 24.2978 24.2318 25.2135 22.6821H38.9496C39.2313 24.7953 39.3722 26.979 39.3722 29.1627V29.1627ZM28.3129 5.07177C28.9469 5.00133 29.5809 5.00134 30.1444 5.00134C30.8488 5.00134 31.5532 5.00133 32.2576 5.07177C34.7935 9.01648 36.6954 13.243 37.8225 17.6808H25.5657C25.1431 16.4833 24.3682 15.4266 23.382 14.6518C24.65 11.2706 26.2701 8.10075 28.3129 5.07177ZM21.621 6.4806C20.4235 8.73472 19.3669 11.1297 18.5216 13.5247C16.3379 13.9474 14.5769 15.5675 13.8725 17.6103H8.73026C11.4775 12.609 16.0561 8.59383 21.621 6.4806ZM5.70129 29.4445C5.70129 27.1199 6.05349 24.7953 6.68746 22.6821H14.3656C14.7882 23.4569 15.4222 24.1614 16.1266 24.7249C15.9857 26.4155 15.8448 28.1061 15.8448 29.7967C15.8448 31.9803 15.9857 34.0936 16.2675 36.2068H6.68746C5.98305 34.0231 5.70129 31.769 5.70129 29.4445ZM17.1128 41.1377C18.0285 44.9415 19.3669 48.6749 21.1984 52.197C15.8448 50.0837 11.407 46.139 8.65982 41.1377H17.1128Z" fill="#091F43"/>
</svg>
