<?xml version="1.0" standalone="no"?>
<!DOCTYPE svg PUBLIC "-//W3C//DTD SVG 20010904//EN"
 "http://www.w3.org/TR/2001/REC-SVG-20010904/DTD/svg10.dtd">
<svg version="1.0" xmlns="http://www.w3.org/2000/svg"
 width="700.000000pt" height="700.000000pt" viewBox="0 0 700.000000 700.000000"
 preserveAspectRatio="xMidYMid meet">
<metadata>
Created by potrace 1.14, written by Peter Selinger 2001-2017
</metadata>
<g transform="translate(0.000000,700.000000) scale(0.100000,-0.100000)"
fill="#000000" stroke="none">
<path d="M3304 5980 c-145 -12 -337 -46 -477 -85 -845 -232 -1515 -913 -1733
-1761 -57 -224 -77 -388 -77 -634 0 -246 20 -410 77 -634 175 -678 642 -1261
1269 -1580 363 -185 723 -270 1142 -269 241 0 408 21 629 77 806 208 1463 822
1725 1615 88 266 125 500 124 796 -1 237 -20 403 -74 617 -217 866 -909 1561
-1775 1784 -254 65 -587 95 -830 74z m424 -502 c173 -288 307 -587 387 -865
14 -49 28 -96 31 -105 5 -17 -24 -18 -513 -18 l-518 1 -34 70 c-21 43 -58 95
-93 133 l-59 61 37 90 c88 215 193 420 318 618 l61 97 167 0 167 0 49 -82z
m-1002 -145 c-63 -127 -142 -307 -180 -415 -26 -70 -31 -77 -60 -82 -116 -22
-277 -154 -332 -273 l-29 -63 -217 0 -217 0 30 51 c188 320 475 594 804 770
79 42 241 118 253 119 1 0 -22 -48 -52 -107z m1678 23 c133 -65 277 -156 383
-241 85 -68 256 -239 326 -325 61 -75 197 -277 197 -292 0 -4 -162 -8 -360 -8
l-360 0 -6 28 c-56 235 -167 548 -287 805 -25 53 -41 97 -35 97 7 0 70 -29
142 -64z m-2211 -1325 c15 -22 48 -61 74 -86 l48 -47 -8 -92 c-20 -211 -8
-765 19 -859 5 -16 -17 -17 -403 -15 l-408 3 -22 85 c-43 161 -56 296 -50 525
3 124 11 243 20 290 14 73 42 192 52 223 3 9 78 12 328 12 l324 0 26 -39z
m2064 -76 c18 -175 26 -428 18 -587 l-7 -147 -52 -15 c-113 -34 -247 -141
-297 -237 l-19 -39 -574 0 -574 0 -6 33 c-21 122 -31 284 -31 522 0 149 3 282
7 296 6 21 19 30 60 44 29 9 73 28 98 43 54 31 153 123 181 169 l21 33 581 -2
582 -3 12 -110z m1250 25 c43 -161 56 -296 50 -525 -4 -203 -14 -285 -53 -457
l-16 -68 -322 0 -321 0 -20 37 c-11 21 -48 67 -82 104 l-63 66 9 185 c10 188
0 514 -19 658 -5 41 -10 78 -10 83 0 4 186 6 413 5 l412 -3 22 -85z m-3097
-1512 c69 -269 163 -531 271 -757 32 -68 58 -125 56 -127 -1 -2 -41 14 -87 35
-339 152 -666 430 -874 746 -29 44 -61 95 -70 113 l-17 32 355 0 355 0 11 -42z
m1505 -16 c16 -31 55 -83 87 -115 32 -32 58 -63 58 -68 0 -19 -93 -247 -149
-364 -59 -124 -151 -288 -228 -406 l-44 -69 -108 0 c-59 0 -135 3 -169 6 l-60
7 -75 126 c-118 198 -205 379 -286 596 -42 111 -101 303 -101 329 0 15 47 16
523 16 l522 0 30 -58z m1395 50 c0 -4 -21 -41 -46 -82 -166 -268 -409 -510
-677 -677 -89 -54 -307 -164 -356 -178 l-24 -7 26 44 c44 75 144 301 199 448
l52 139 59 20 c115 39 223 131 287 244 l32 57 224 0 c123 0 224 -3 224 -8z"/>
</g>
</svg>
